<mxfile host="app.diagrams.net" modified="2023-11-17T09:49:51.538Z" agent="Mozilla/5.0 (Windows NT 10.0; Win64; x64) AppleWebKit/537.36 (KHTML, like Gecko) Chrome/119.0.0.0 Safari/537.36" etag="rBfFCta06908ZDtNl1rX" version="22.1.2" type="github">
  <diagram id="C5RBs43oDa-KdzZeNtuy" name="Page-1">
    <mxGraphModel dx="1886" dy="2066" grid="0" gridSize="10" guides="1" tooltips="1" connect="1" arrows="1" fold="1" page="1" pageScale="1" pageWidth="827" pageHeight="1169" math="0" shadow="0">
      <root>
        <mxCell id="WIyWlLk6GJQsqaUBKTNV-0" />
        <mxCell id="WIyWlLk6GJQsqaUBKTNV-1" parent="WIyWlLk6GJQsqaUBKTNV-0" />
        <mxCell id="gbLwmwSnbS9QcMuHwqCr-0" style="edgeStyle=orthogonalEdgeStyle;rounded=0;orthogonalLoop=1;jettySize=auto;html=1;fontSize=15;" edge="1" parent="WIyWlLk6GJQsqaUBKTNV-1" source="gbLwmwSnbS9QcMuHwqCr-1" target="gbLwmwSnbS9QcMuHwqCr-3">
          <mxGeometry relative="1" as="geometry" />
        </mxCell>
        <mxCell id="gbLwmwSnbS9QcMuHwqCr-1" value="开始" style="strokeWidth=2;html=1;shape=mxgraph.flowchart.start_1;whiteSpace=wrap;fontSize=15;" vertex="1" parent="WIyWlLk6GJQsqaUBKTNV-1">
          <mxGeometry x="238" y="-428" width="95" height="41" as="geometry" />
        </mxCell>
        <mxCell id="gbLwmwSnbS9QcMuHwqCr-2" style="edgeStyle=orthogonalEdgeStyle;rounded=0;orthogonalLoop=1;jettySize=auto;html=1;" edge="1" parent="WIyWlLk6GJQsqaUBKTNV-1" source="gbLwmwSnbS9QcMuHwqCr-3" target="gbLwmwSnbS9QcMuHwqCr-4">
          <mxGeometry relative="1" as="geometry" />
        </mxCell>
        <mxCell id="gbLwmwSnbS9QcMuHwqCr-3" value="发起转赠,前端生成一个领取链接,分享到微信" style="rounded=0;whiteSpace=wrap;html=1;fontSize=15;" vertex="1" parent="WIyWlLk6GJQsqaUBKTNV-1">
          <mxGeometry x="216.88" y="-356" width="137.25" height="61" as="geometry" />
        </mxCell>
        <mxCell id="gbLwmwSnbS9QcMuHwqCr-4" value="用户领取优惠券" style="rounded=0;whiteSpace=wrap;html=1;fontSize=15;" vertex="1" parent="WIyWlLk6GJQsqaUBKTNV-1">
          <mxGeometry x="216.88" y="-264" width="137.12" height="47" as="geometry" />
        </mxCell>
        <mxCell id="gbLwmwSnbS9QcMuHwqCr-5" style="edgeStyle=orthogonalEdgeStyle;rounded=0;orthogonalLoop=1;jettySize=auto;html=1;" edge="1" parent="WIyWlLk6GJQsqaUBKTNV-1" source="gbLwmwSnbS9QcMuHwqCr-7" target="gbLwmwSnbS9QcMuHwqCr-9">
          <mxGeometry relative="1" as="geometry" />
        </mxCell>
        <mxCell id="gbLwmwSnbS9QcMuHwqCr-6" style="edgeStyle=orthogonalEdgeStyle;rounded=0;orthogonalLoop=1;jettySize=auto;html=1;" edge="1" parent="WIyWlLk6GJQsqaUBKTNV-1" source="gbLwmwSnbS9QcMuHwqCr-7" target="gbLwmwSnbS9QcMuHwqCr-12">
          <mxGeometry relative="1" as="geometry" />
        </mxCell>
        <mxCell id="gbLwmwSnbS9QcMuHwqCr-7" value="优惠券能从初始化更新到赠送状态" style="strokeWidth=2;html=1;shape=mxgraph.flowchart.decision;whiteSpace=wrap;fontSize=14;" vertex="1" parent="WIyWlLk6GJQsqaUBKTNV-1">
          <mxGeometry x="158.63" y="-181" width="253.87" height="83" as="geometry" />
        </mxCell>
        <mxCell id="gbLwmwSnbS9QcMuHwqCr-8" style="edgeStyle=orthogonalEdgeStyle;rounded=0;orthogonalLoop=1;jettySize=auto;html=1;" edge="1" parent="WIyWlLk6GJQsqaUBKTNV-1" source="gbLwmwSnbS9QcMuHwqCr-9" target="gbLwmwSnbS9QcMuHwqCr-13">
          <mxGeometry relative="1" as="geometry" />
        </mxCell>
        <mxCell id="gbLwmwSnbS9QcMuHwqCr-9" value="提示优惠券无法被领取" style="rounded=0;whiteSpace=wrap;html=1;fontSize=15;" vertex="1" parent="WIyWlLk6GJQsqaUBKTNV-1">
          <mxGeometry x="488.44" y="-163" width="137.12" height="47" as="geometry" />
        </mxCell>
        <mxCell id="gbLwmwSnbS9QcMuHwqCr-10" style="edgeStyle=orthogonalEdgeStyle;rounded=0;orthogonalLoop=1;jettySize=auto;html=1;" edge="1" parent="WIyWlLk6GJQsqaUBKTNV-1" source="gbLwmwSnbS9QcMuHwqCr-12" target="gbLwmwSnbS9QcMuHwqCr-13">
          <mxGeometry relative="1" as="geometry" />
        </mxCell>
        <mxCell id="gbLwmwSnbS9QcMuHwqCr-11" style="edgeStyle=orthogonalEdgeStyle;rounded=0;orthogonalLoop=1;jettySize=auto;html=1;" edge="1" parent="WIyWlLk6GJQsqaUBKTNV-1" source="gbLwmwSnbS9QcMuHwqCr-12" target="gbLwmwSnbS9QcMuHwqCr-15">
          <mxGeometry relative="1" as="geometry" />
        </mxCell>
        <mxCell id="gbLwmwSnbS9QcMuHwqCr-12" value="领取成功" style="rounded=0;whiteSpace=wrap;html=1;fontSize=15;" vertex="1" parent="WIyWlLk6GJQsqaUBKTNV-1">
          <mxGeometry x="217.01" y="-60" width="137.12" height="47" as="geometry" />
        </mxCell>
        <mxCell id="gbLwmwSnbS9QcMuHwqCr-13" value="结束" style="strokeWidth=2;html=1;shape=mxgraph.flowchart.terminator;whiteSpace=wrap;fontSize=15;" vertex="1" parent="WIyWlLk6GJQsqaUBKTNV-1">
          <mxGeometry x="507" y="-66.5" width="100" height="60" as="geometry" />
        </mxCell>
        <mxCell id="gbLwmwSnbS9QcMuHwqCr-14" style="edgeStyle=orthogonalEdgeStyle;rounded=0;orthogonalLoop=1;jettySize=auto;html=1;" edge="1" parent="WIyWlLk6GJQsqaUBKTNV-1" source="gbLwmwSnbS9QcMuHwqCr-15" target="gbLwmwSnbS9QcMuHwqCr-13">
          <mxGeometry relative="1" as="geometry" />
        </mxCell>
        <mxCell id="gbLwmwSnbS9QcMuHwqCr-15" value="用户优惠券表插入一条优惠券记录" style="rounded=0;whiteSpace=wrap;html=1;fontSize=15;" vertex="1" parent="WIyWlLk6GJQsqaUBKTNV-1">
          <mxGeometry x="217.01" y="36" width="137.12" height="47" as="geometry" />
        </mxCell>
        <mxCell id="gbLwmwSnbS9QcMuHwqCr-16" style="edgeStyle=orthogonalEdgeStyle;rounded=0;orthogonalLoop=1;jettySize=auto;html=1;entryX=0.5;entryY=0;entryDx=0;entryDy=0;entryPerimeter=0;" edge="1" parent="WIyWlLk6GJQsqaUBKTNV-1" source="gbLwmwSnbS9QcMuHwqCr-4" target="gbLwmwSnbS9QcMuHwqCr-7">
          <mxGeometry relative="1" as="geometry" />
        </mxCell>
      </root>
    </mxGraphModel>
  </diagram>
</mxfile>
